<svg width="64" height="64" viewBox="0 0 24 24" fill="none" xmlns="http://www.w3.org/2000/svg">
<rect width="24" height="24" fill="#7553FF"/>
<path d="M14.2666 4.9061C15.1564 4.09409 16.5921 4.60917 16.7627 5.80162L18.1123 15.2519C18.9476 14.5758 19.6675 14.156 20.2706 13.9423C20.9583 13.6988 21.61 13.6893 22.0606 14.0459C22.5331 14.4202 22.576 15.0232 22.4131 15.5224C22.2471 16.0308 21.8525 16.5326 21.2774 16.916C20.2382 17.6088 19.1848 18.1368 17.7432 18.4863C16.3131 18.833 14.518 19 12 19C9.48202 19 7.68685 18.833 6.25679 18.4863C4.81521 18.1368 3.76183 17.6088 2.72259 16.916C2.14753 16.5326 1.75289 16.0308 1.58684 15.5224C1.42401 15.0233 1.46701 14.4202 1.93938 14.0459C2.38997 13.6893 3.04168 13.6988 3.72943 13.9423C4.33238 14.1559 5.05163 14.5761 5.88667 15.2519L7.23727 5.80162C7.40784 4.60919 8.84362 4.09419 9.73338 4.9061L11.6631 6.66686C11.854 6.84121 12.146 6.84121 12.3369 6.66686L14.2666 4.9061Z" fill="white"/>
<path d="M12 8L13.1226 11.1094H16.7553L13.8164 13.0312L14.9389 16.1406L12 14.2188L9.06107 16.1406L10.1836 13.0312L7.24472 11.1094H10.8774L12 8Z" fill="#7553FF"/>
</svg>
